<svg xmlns="http://www.w3.org/2000/svg" width="192" height="192"><path fill="#FFB700" d="M172 160V32c0-6.6-5.4-12-12-12H32c-6.6 0-12 5.4-12 12v128c0 6.6 5.4 12 12 12h128c6.6 0 12-5.4 12-12z"/><path fill="#FF5B00" d="M45 33h29v126H45z"/><path fill="#005641" d="M20 33h25v126H20z"/><path fill="#8D2029" d="M86 33h86v126H86z"/><path fill="#FFB700" d="M171.91 82.05c-.02-.22-.05-.41-.07-.59.06.03.11.06.16.1V56.84c-.23.07-.48.08-.82.08-.89 0-1.14-.1-1.73-.74-.96-1.03-2.63-2-4.25-2.47-.26-.08-.46-.11-.63-.11-.46 0-1.01.28-1.01 1.05-.02.15-.23.77-.6 1.45l-.23.43-.76-.75c-.96-.95-2.11-1.69-3-1.92-.72-.19-1.26-.32-1.66-.32-1.3 0-1.3 1.21-1.3 2 0 1-.21 1.33-.3 1.33-.06 0-.43-.03-1.2-.7-1.14-.99-2.19-1.38-3.75-1.38-.47 0-1.01.03-1.65.11l-2.83.31.69 1.72c.17.44.2.49-.3 1.16-.87 1.15-1.95 1.62-3.73 1.62-.89 0-2.19.17-2.86.49-.37.17-1.46.44-2.45.53-.55.05-1.38.16-1.98.28.01-.04.01-.09.02-.14.14-.96-.11-1.85-.69-2.52-.63-.72-1.59-1.12-2.7-1.12-1.19 0-2.19.47-2.81 1.34-.78 1.08-.9 2.67-.33 4.38.17.5.39 1.31.49 1.77.23 1.06 2.37 3.23 2.61 3.47 1.33 1.33 2.33 2.46 2.47 2.69.29.51 1.06 1.12 1.67 1.46l2.26 1.25-.24-1.98c.32.28.68.55.98.73.55.34.83.48 1.13.48.09 0 .85-.03.85-1 0-.07.04-.27.11-.51.45.77 1.46 2.12 2.42 3.24.21.24.4.47.58.7-2.45-.04-6.45-1.17-10.5-2.97-2.06-.92-2.96-1.23-3.54-1.23-.33 0-.61.1-.82.3-.35.34-.5.81-.42 1.33.12.75.76 1.6 1.67 2.29-.57.37-.81 1.11-.96 1.61-.2.66-.58 1.85-.83 2.65l-.78 2.47 2.73-.26c.83-.08 1.84-.24 2.47-.4l-1.34 2.48 2.51-.51c.63-.13 1.55-.43 2.08-.69.06-.03.2-.1.29-.14.11.14.27.4.37.56.53.86 1.06 1.27 1.62 1.27.37 0 .98-.18 1.21-1.27.07.13.14.29.23.47.72 1.53 1.45 2.31 2.16 2.31.21 0 .91-.08 1.07-1.11.03-.13.32-.55.73-.84.35-.25.56-.29.66-.29.23 0 .4.32.5.59.18.47.05 1.31-3.22 3.29-6.06 3.67-9.65 8.79-10.66 15.22-.27 1.72-.21 3.47.15 5.18-.88-.96-2.13-2.21-3.89-3.92l-4.91-4.76c1.43-.91 2.27-2.32 2.19-3.77-.08-1.43-1.05-2.57-2.58-3.04-.47-.15-.89-.22-1.27-.22-.12 0-.23.01-.34.02.2-1.42.27-4.27.39-10.78.33-17.43 1.61-30.69 3.28-33.76.4-.73.64-1.18.37-1.63a.776.776 0 00-.67-.37c-.37 0-.71.21-1.91 1.02-2.37 1.61-4.22 3.76-5.81 6.74-2.96 5.57-4.01 13.15-4.01 28.95 0 6.07.03 8.61.22 9.93a2.9 2.9 0 00-.6-.07c-.35 0-.73.05-1.14.16-1.54.4-2.55 1.49-2.69 2.9-.17 1.65.89 3.28 2.7 4.17.53.26 1.19.47 1.94.64l-.07.07c-.18.21-.37.58-.28 1.14.03.17.08.32.16.46-.46.13-.71.38-.85.61-.3.49-.25 1.13.16 1.9.22.43.54.71.92.91-.41.44-.57.97-.42 1.5.12.41.41.76.82 1.03-.21.32-.21.73-.21.99 0 .92.44 1.38 1.13 1.76-.14.31-.14.69-.14.95 0 .07 0 .13-.01.17-.1-.03-.27-.09-.53-.24-.35-.21-.73-.32-1.1-.32-.95 0-1.64.72-1.64 1.72 0 .44.19 1.88 2.66 1.88.15 0 .3-.01.47-.02h.12c-.06.16-.21.44-.59.88l-1.17 1.31.95 1.37c.74 1.07.69 2.96-.11 3.82l-.23.25-.02-.03c-.46-.62-1.08-.97-1.68-.97-.75 0-1.35.52-1.57 1.34-.28 1.07.11 1.64 1.04 2.43.61.52 1.6 1.04 2.3 1.05-.09.12-.25.29-.51.49l-2.21 1.69 3.03.47c.4.06.7.15.87.21.24.92 1.06 2.73 1.91 2.73.63 0 1.23-.75 1.4-.98.32-.44.65-1.19.65-1.78v-.01c.11-.04.34-.1.87-.17l3.1-.44-2.26-1.8c-.21-.16-.35-.31-.46-.42 1.24-.13 3.11-1.23 3.47-2.32.2-.6.07-1.36-.31-1.8a1.99 1.99 0 00-1.49-.68c-.74 0-1.34.41-1.55 1.04-.07-.06-.16-.13-.26-.23-.96-.91-.97-2.91-.01-4.03.87-1.02.71-1.49-.21-2.36-.39-.37-.67-.92-.79-1.31.14.03.3.08.48.14.57.19.93.27 1.26.27.39 0 .72-.12 1.04-.37.6-.48.84-1.12.63-1.74-.21-.62-.83-1.07-1.65-1.25.35 0 .69-.2 1.15-.58.18.23.43.44.69.64.66.5.66.5.66 3.27 0 2.66.1 3.53.79 4.18.35.33.6.57.97.57.29 0 .78-.13.79-1.02.08-.15.47-.43.84-.49.37.24 1.41 1.12 2.72 2.4.29.28 2.86 2.77 3.84 2.94.44.08.92.16 1.06.19.04.01.09.01.14.01.43 0 1.42-.37 1.71-.49 1.03-.4 3.79-2.43 4.35-3.66 2.18 1.54 5.31 3.24 6.33 3.24.06 0 .11 0 .16-.01.31 1.04.68 2.17 1.11 3.44 2.26 6.62 1.48 8.52-.87 9.9-.73.43-1.19.54-3.07.54-.24 0-.5 0-.78-.01-.38 0-.72-.01-1.01-.01-2 0-2.52.14-3.49.91-1.05.84-2.29 3.36-2.29 4.65 0 .64.45 1.09 1.08 1.09.45 0 1.06-.23 1.9-.71l.56-.32.1.13c.43.58 1.2.92 2.12.92.85 0 1.72-.29 2.4-.79l.42-.32.31.28c.6.53 1.44.83 2.38.83.91 0 1.78-.28 2.46-.79.09-.07.31-.23.44-.31.03.03.08.06.15.12.49.42 1.6.75 2.45.86.4.05.74.1 1.03.1 1.01 0 1.37-.54 2.03-1.53.83-1.25.98-1.86.78-3.11-.11-.67-.23-1.79-.27-2.44-.01-.25-.03-.55-.01-.65.13-.11.69-.31 1.27-.51.91-.32 2.16-.81 2.65-1.07.69-.37 3.07-2.86 3.07-3.79 0-.64-.57-.91-2.34-1.11-1.46-.16-2.35-.57-2.65-1.2-.37-.78.05-2.13 1.21-3.9.7-1.08 1.36-2.15 1.96-3.21l1.17-.27c.65-.15 3.99-1.58 6.8-2.86.91-.41 1.75-.78 2.54-1.13V82.57c-.08-.17-.11-.35-.13-.52zm-52.51 28.97c-.2 0-.4.01-.6.04-.17.02-.31.03-.39.03 0-.01-.01-.01-.01-.02.36-.03.68-.1.94-.22.06-.03.11-.05.16-.08.11.15.24.23.37.28-.15-.02-.31-.03-.47-.03z"/><path d="M171.07 74.62c.33.29.65.56.93.78v.85c-.16-.41-.51-.76-1.22-1.3-1.59-1.21-2.1-2.06-2.4-4.01-.12-.79-.4-1.67-.62-1.95-.32-.42-.38-.19-.29 1.28.06.99-.07 2.21-.29 2.73l-.39.93-.3-.78c-.17-.43-.9-1.17-1.63-1.65-.73-.48-1.25-.95-1.14-1.05.1-.1.86.34 1.68.97 1.25.97 1.52 1.07 1.69.65.2-.5 0-2.68-.39-4.2-.2-.76-.18-.76.76.18.69.69 1.07 1.51 1.37 2.95.37 1.84.56 2.14 2.24 3.62zm.93 40.63v.77c-.79.34-1.63.72-2.54 1.13-2.81 1.27-6.15 2.71-6.8 2.86l-1.17.27c-.6 1.06-1.26 2.13-1.96 3.21-1.16 1.77-1.57 3.12-1.21 3.9.3.63 1.19 1.04 2.65 1.2 1.77.2 2.34.47 2.34 1.11 0 .93-2.38 3.42-3.07 3.79-.5.27-1.74.76-2.65 1.07-.59.2-1.14.4-1.27.51-.02.1-.01.41.01.65.03.65.16 1.77.27 2.44.21 1.25.05 1.86-.78 3.11-.66.99-1.02 1.53-2.03 1.53-.29 0-.63-.04-1.03-.1-.85-.11-1.97-.44-2.45-.86-.06-.06-.11-.09-.15-.12-.13.08-.35.24-.44.31-.68.51-1.56.79-2.46.79-.93 0-1.78-.29-2.38-.83l-.31-.28-.42.32c-.68.5-1.55.79-2.4.79-.91 0-1.68-.33-2.12-.92l-.1-.13-.56.32c-.84.49-1.44.71-1.9.71-.64 0-1.08-.45-1.08-1.09 0-1.29 1.24-3.81 2.29-4.65.97-.77 1.49-.91 3.49-.91.3 0 .63 0 1.01.01.28 0 .54.01.78.01 1.88 0 2.34-.12 3.07-.54 2.35-1.38 3.13-3.28.87-9.9-.43-1.27-.8-2.41-1.11-3.44-.05.01-.1.01-.16.01-1.02 0-4.15-1.69-6.33-3.24-.56 1.23-3.32 3.25-4.35 3.66-.29.11-1.27.49-1.71.49-.05 0-.1 0-.14-.01-.14-.02-.62-.11-1.06-.19-.98-.17-3.55-2.66-3.84-2.94-1.31-1.28-2.35-2.16-2.72-2.4-.36.06-.76.34-.84.49-.01.89-.5 1.02-.79 1.02-.37 0-.62-.24-.97-.57-.69-.65-.79-1.52-.79-4.18 0-2.77 0-2.77-.66-3.27-.26-.2-.51-.41-.69-.64-.46.38-.8.58-1.15.58.82.18 1.44.63 1.65 1.25.21.61-.02 1.26-.63 1.74-.32.25-.65.37-1.04.37-.33 0-.69-.08-1.26-.27-.17-.06-.34-.1-.48-.14.13.39.4.94.79 1.31.93.88 1.09 1.34.21 2.36-.96 1.12-.96 3.12.01 4.03.11.1.19.18.26.23.21-.64.81-1.04 1.55-1.04.57 0 1.11.25 1.49.68.38.44.52 1.19.31 1.8-.37 1.09-2.24 2.2-3.47 2.32.11.12.26.26.46.42l2.26 1.8-3.1.44c-.53.07-.77.13-.87.17v.01c0 .59-.33 1.35-.65 1.78-.17.23-.77.98-1.4.98-.85 0-1.67-1.82-1.91-2.73-.17-.06-.47-.14-.87-.21l-3.03-.47 2.21-1.69c.26-.2.41-.37.51-.49-.7 0-1.69-.53-2.3-1.05-.93-.79-1.33-1.36-1.04-2.43.22-.83.82-1.34 1.57-1.34.6 0 1.22.35 1.68.97l.02.03.23-.25c.79-.86.85-2.75.11-3.82l-.95-1.37 1.17-1.31c.39-.44.54-.72.59-.88h-.12c-.16.01-.32.02-.47.02-2.47 0-2.66-1.44-2.66-1.88 0-1 .69-1.72 1.64-1.72.36 0 .74.11 1.1.32.26.15.43.22.53.24.01-.04.01-.1.01-.17 0-.26 0-.65.14-.95-.68-.37-1.13-.84-1.13-1.76 0-.26 0-.67.21-.99-.42-.27-.71-.62-.82-1.03-.15-.53.01-1.06.42-1.5-.38-.2-.7-.49-.92-.91-.4-.76-.46-1.4-.16-1.9.14-.23.39-.48.85-.61a1.2 1.2 0 01-.16-.46c-.09-.57.1-.94.28-1.14.02-.03.05-.05.07-.07-.75-.17-1.42-.38-1.94-.64-1.8-.88-2.86-2.52-2.7-4.17.14-1.41 1.15-2.5 2.69-2.9a4.4 4.4 0 011.14-.16c.21 0 .41.03.6.07-.19-1.32-.22-3.86-.22-9.93 0-15.8 1.05-23.38 4.01-28.95 1.59-2.99 3.43-5.13 5.81-6.74 1.2-.81 1.54-1.02 1.91-1.02.28 0 .53.14.67.37.27.45.03.89-.37 1.63-1.67 3.07-2.96 16.32-3.28 33.76-.12 6.51-.19 9.35-.39 10.78.11-.01.22-.02.34-.02.38 0 .8.07 1.27.22 1.53.48 2.5 1.62 2.58 3.04.08 1.45-.76 2.86-2.19 3.77l4.91 4.76c1.76 1.71 3.01 2.96 3.89 3.92a14.32 14.32 0 01-.15-5.18c1.01-6.42 4.59-11.54 10.66-15.22 3.27-1.98 3.4-2.83 3.22-3.29-.1-.27-.28-.59-.5-.59-.09 0-.3.04-.66.29-.41.29-.69.7-.73.84-.16 1.03-.86 1.11-1.07 1.11-.72 0-1.45-.78-2.16-2.31a6.99 6.99 0 00-.23-.47c-.24 1.1-.85 1.27-1.21 1.27-.56 0-1.09-.42-1.62-1.27-.1-.16-.26-.42-.37-.56-.09.04-.23.11-.29.14-.53.26-1.45.56-2.08.69l-2.51.51 1.34-2.48c-.63.15-1.64.32-2.47.4l-2.73.26.78-2.47c.25-.8.63-1.99.83-2.65.15-.5.39-1.24.96-1.61-.91-.69-1.55-1.53-1.67-2.29-.09-.52.06-.99.42-1.33.21-.2.48-.3.82-.3.59 0 1.48.31 3.54 1.23 4.05 1.8 8.05 2.93 10.5 2.97-.18-.23-.37-.46-.58-.7-.96-1.11-1.97-2.47-2.42-3.24-.07.25-.11.44-.11.51 0 .98-.76 1-.85 1-.3 0-.58-.14-1.13-.48-.29-.18-.66-.45-.98-.73l.24 1.98-2.26-1.25c-.61-.34-1.38-.95-1.67-1.46-.14-.23-1.14-1.37-2.47-2.69-.24-.24-2.39-2.41-2.61-3.47-.1-.46-.32-1.27-.49-1.77-.57-1.71-.45-3.31.33-4.38.62-.86 1.62-1.34 2.81-1.34 1.11 0 2.07.4 2.7 1.12.58.67.83 1.57.69 2.52-.01.05-.01.09-.02.14.59-.12 1.43-.22 1.98-.28.99-.09 2.09-.36 2.45-.53.67-.32 1.97-.49 2.86-.49 1.78 0 2.86-.47 3.73-1.62.5-.66.48-.72.3-1.16l-.69-1.72 2.83-.31c.65-.07 1.19-.11 1.65-.11 1.55 0 2.6.39 3.75 1.38.77.67 1.13.7 1.2.7.09 0 .3-.33.3-1.33 0-.8 0-2 1.3-2 .41 0 .95.13 1.66.32.89.23 2.04.97 3 1.92l.76.75.23-.43c.37-.68.58-1.3.6-1.45 0-.77.54-1.05 1.01-1.05.18 0 .37.03.63.11 1.62.47 3.29 1.45 4.25 2.47.6.64.84.74 1.73.74.34 0 .59-.02.82-.08v.72c-.24.05-.5.07-.82.07-1.09 0-1.51-.18-2.25-.96-.88-.94-2.44-1.84-3.94-2.28-.55-.16-.74-.09-.74.28 0 .27-.31 1.07-.68 1.76l-.68 1.26-1.42-1.41c-.87-.86-1.91-1.54-2.68-1.74-1.97-.52-2.08-.47-2.08 1 0 2.23-.95 2.64-2.66 1.16-1.3-1.13-2.39-1.37-4.86-1.1l-1.91.21.34.86c.29.72.22 1.02-.39 1.84-1 1.33-2.3 1.9-4.29 1.9-.92 0-2.07.19-2.56.42s-1.7.5-2.69.6-2.05.26-2.35.38c-.47.18-.52.03-.37-1.04.23-1.64-.91-2.84-2.69-2.84-2.31 0-3.38 2.07-2.47 4.79.17.52.4 1.35.51 1.84.11.51 1.15 1.84 2.42 3.12 1.23 1.23 2.39 2.51 2.58 2.84.19.33.82.87 1.4 1.19l1.05.58-.14-1.13c-.15-1.24.12-1.43.78-.56.24.31.83.82 1.33 1.12.78.48.9.49.9.07 0-.26.16-.88.35-1.36l.35-.87.61 1.19c.34.65 1.44 2.14 2.44 3.31 1.95 2.26 3.14 4.78 2.53 5.36-.25.24-.92.22-2.31-.06-1.08-.22-2.42-.33-2.97-.26-1.13.16-1.22.01-.52-.86.73-.92.62-1.07-.82-1.07-1.67 0-5.8-.8-7.39-1.43-1.54-.61-1.9-.46-2.35 1.01-.2.66-.58 1.85-.83 2.65l-.46 1.46 1.67-.16c.92-.09 2.1-.29 2.63-.45.53-.16 1-.24 1.06-.19.06.06-.18.62-.52 1.26l-.63 1.16 1.04-.21c.57-.12 1.43-.4 1.91-.63.84-.4.9-.38 1.56.68.81 1.3 1.46 1.25 1.6-.13.15-1.43.62-1.22 1.5.68.85 1.82 1.73 2.46 1.9 1.38.06-.36.51-.94 1.02-1.29 1.02-.72 1.78-.5 2.22.62.45 1.16-.56 2.36-3.51 4.15-5.91 3.58-9.34 8.48-10.33 14.73-.88 5.63 1.88 11.45 7.42 15.63 2.65 2 6.87 4.11 6.6 3.31-1.14-3.42-1.1-9.95.06-11.05.17-.17.11.52-.13 1.51-.92 3.72-.52 6.68 1.84 13.62 2.14 6.28 1.84 8.96-1.19 10.73-.97.57-1.6.66-4.22.63-2.84-.03-3.15.02-4.06.75-.88.7-2.03 3.02-2.03 4.1 0 .58.65.51 1.92-.23l1.1-.64.47.64c.63.85 2.37.84 3.53-.02l.88-.66.74.66c.97.87 2.79.87 3.95 0 .81-.6.93-.62 1.46-.16.32.27 1.26.59 2.09.69 1.49.19 1.51.18 2.38-1.13.73-1.1.84-1.54.67-2.6-.12-.7-.24-1.84-.28-2.52-.07-1.23-.06-1.24 1.74-1.87.99-.35 2.14-.81 2.55-1.03.72-.39 2.7-2.71 2.7-3.17 0-.12-.77-.31-1.72-.41-3.76-.42-4.39-2.44-1.95-6.19 3.98-6.11 6.39-12.07 6.4-15.86.01-1.69.1-2.26.32-1.9.89 1.51-.7 7.82-3.12 12.36l-.97 1.83.93-.21c.51-.12 3.51-1.38 6.67-2.81 1.09-.44 2.03-.85 2.9-1.23zm-39.51-40.12c1.71.79 6.49 1.75 8.68 1.75 1.27 0 1.3.06.58 1.1l-.53.77 1.43.04c.79.02 1.87.14 2.42.27 1.41.34 1.42.34 1.62.03.1-.15-.12-.92-.49-1.71-.57-1.23-.8-1.43-1.62-1.43-2.56 0-6.67-1.14-10.91-3.03-2.45-1.09-3.3-1.34-3.59-1.06-.77.7.48 2.39 2.41 3.27zm-19.09 6.92c0 8.94.06 10.11.57 10.95.48.8.51 1.09.17 1.95-.22.55-.32 1.08-.22 1.17.65.62 5.4.45 6.1-.21.18-.17.1-.44-.2-.68-.67-.53-.64-1.32.1-2.22.56-.68.63-1.69.82-11.93.33-17.63 1.64-30.9 3.37-34.08.69-1.27.59-1.27-1.19-.06-2.29 1.56-4.03 3.59-5.58 6.49-2.92 5.48-3.94 12.86-3.94 28.62zm8.59 16.6c3.17-1.41 3.45-4.97.46-5.91-1.24-.39-2.04-.18-2.51.66-.36.64-.12 1.82.38 1.82.17 0 .31.22.31.48 0 1.24-4.84 1.8-6.83.79-.7-.35-1-1.27-.42-1.27.43 0 .73-.94.51-1.6-.3-.9-1.21-1.21-2.53-.87-2.97.78-2.89 4.27.14 5.76 2.47 1.21 7.91 1.28 10.49.14zm-6.04 1.55c-1.82-.39-2.62-.17-2.48.68.07.46.68.8 2.4 1.33 2.75.86 3.57.85 3.71-.04.1-.76-1.16-1.44-3.63-1.97zm-1.23 4.39c.81.12 1.91.36 2.45.53 1.45.45 2.28.29 2.39-.45.1-.66-.32-.9-3.79-2.12-2.59-.91-3.74-.48-2.91 1.09.29.54.78.79 1.86.95zm4.78 6.17c-.05.03-.11.06-.16.08-.26.12-.57.19-.94.22 0 .01.01.01.01.02.09 0 .23-.01.39-.03a4.032 4.032 0 011.07-.01.733.733 0 01-.37-.28zm-4.37-3.57c.64.08 1.51.27 1.94.44 1.23.48 2.39.26 2.5-.47.07-.47-.22-.78-1.08-1.17-1.86-.84-4.09-1.23-4.63-.81-.99.78-.33 1.82 1.27 2.01zm.32 2.64c1.82.79 4.02.71 4.02-.15 0-.83-1.7-1.71-3.74-1.94-1.64-.18-1.67-.17-1.67.65 0 .68.26.95 1.39 1.44zm3.45 1.93c-.73.1-1.03 0-1.13-.38-.08-.29-.72-.66-1.43-.84-1.28-.32-1.29-.32-1.29.56 0 .97-.55 1.15-1.6.53-.85-.5-1.68-.11-1.68.8 0 .85.85 1.26 2.38 1.17 1.17-.08 1.21.8.1 2.05l-.8.9.63.91c.94 1.35.86 3.59-.17 4.7l-.8.87-.53-.7c-.73-.97-1.73-.91-2.01.13-.18.68-.03.99.82 1.71.57.48 1.41.88 1.85.88 1.11 0 1.07.87-.09 1.75l-.9.69 1.39.22c.77.12 1.39.34 1.39.5 0 .59.97 2.44 1.28 2.44.18 0 .56-.31.84-.69.28-.38.51-.99.51-1.36 0-.56.25-.71 1.48-.88l1.48-.21-.99-.79c-1.17-.93-1.28-1.66-.25-1.66s2.77-1.07 3.03-1.86c.12-.37.05-.86-.17-1.11-.58-.66-1.66-.56-1.86.17-.22.78-.58.79-1.4.01-1.23-1.17-1.26-3.59-.06-5 .57-.66.56-.71-.16-1.39-.78-.74-1.34-2.2-.97-2.54.12-.11.73-.02 1.37.2.9.31 1.26.31 1.63.02 1.14-.91-.08-2.05-1.89-1.8zm3.17-3.81c-.57 0-2.1 1.37-2.1 1.89 0 .81.28.76 1.38-.23.82-.76 1.22-1.66.72-1.66zm17.25 10.73c0-.18-.76-1.01-1.68-1.85-1.95-1.76-4.06-4.73-4.61-6.46-.29-.9-1.67-2.45-5.56-6.23l-5.18-5.02-1.49.38c-.82.21-1.82.38-2.23.39-.7.01-.68.05.24.77l.98.75 1.37-.76c1.32-.74 1.37-.74 1.54-.15.1.35-.11.95-.48 1.39-.36.43-.56.91-.45 1.08.11.17-.23.51-.76.77-.97.48-1.65 2.04-.88 2.04.69 0 2.21-1.88 2.04-2.51-.09-.33-.05-.66.1-.74.59-.35.56 1.13-.05 1.85-.36.43-.56.91-.45 1.08.11.17-.23.51-.76.77-.97.47-1.65 2.04-.89 2.04.75 0 2.24-1.8 2.06-2.47-.1-.35-.06-.71.08-.79.4-.23.61.93.28 1.5-.18.31-.18.72 0 1.05.33.6 0 1.75-.62 2.11-.26.15-.08.45.55.93.92.69.94.77.94 3.83 0 2.56.1 3.22.57 3.67.53.5.57.5.57.02 0-.52.92-1.16 1.67-1.16.22 0 1.61 1.18 3.08 2.61 1.48 1.45 3.03 2.68 3.47 2.75.44.08.91.16 1.05.18.14.02.81-.17 1.48-.44 1.28-.49 4.02-2.81 4.02-3.38zm-18.01-16.35c.52-.53.95-1.16.95-1.39 0-.76-2.07.59-2.33 1.52-.32 1.11.19 1.07 1.38-.13zm50.63-33.91c-.71-.72-1.33-1.38-1.38-1.45s-.18-.04-.3.07c-.12.11.4.77 1.16 1.45.21.19.4.36.57.5v-.52l-.05-.05zm-4.98 15.23c-.59-.54-1.07-.83-1.07-.66 0 .93 3.46 2.87 5.42 3.04.25.02.48.07.69.13v-.57h-.36c-1.57 0-3.38-.75-4.68-1.94zm-17.54-17.39c.57-.54.49-2.01-.13-2.23-.86-.31-.92-.22-.28.45.47.49.53.76.26 1.17-.92 1.39-3.14.17-2.55-1.4.18-.47.68-.94 1.19-1.1.91-.29 1.4-.12 5.23 1.82 1.68.85 5.2 1.38 5.2.78 0-.19-.14-.35-.32-.35-.17 0-.46-.26-.64-.57-.31-.55-.25-.55 1.38-.14 1.09.28 2.4.36 3.61.24 2.86-.29 2.95-.37 1.59-1.55-1.45-1.26-1.86-1.14-.54.16l.94.93-1.62.05c-3.31.1-4.8-.19-6.04-1.18-1.21-.96-1.24-.79-.17.82.45.68.82 1.28.82 1.34 0 .06-.73.02-1.62-.09-1.03-.12-2.35-.63-3.63-1.37-1.11-.65-2.57-1.25-3.25-1.34-1.06-.13-1.34-.04-1.95.7-.84 1.01-.89 1.63-.2 2.56.58.74 2.07.92 2.72.3zm15.67 16.6l-.35 1.12-1.75-1.12c-.97-.61-1.91-1.44-2.1-1.84-.46-.95-.78-.91-1.06.13l-.23.85-.31-.78c-.31-.77-2.51-3.11-2.93-3.11-.12 0-.31.38-.42.85-.38 1.65-.74 1.86-1.72 1-.48-.42-1.16-1.19-1.49-1.7-.44-.67-.61-.78-.61-.37 0 .51 2.52 3.32 2.98 3.32.11 0 .47-.49.81-1.09.34-.6.72-1.09.84-1.09.47 0 2.26 2.23 2.26 2.81 0 .79.54.78.99-.02.35-.62.38-.61 1.32.23.82.74.97 1.1.97 2.44 0 .87-.08 1.65-.17 1.75-.1.09-.66-.27-1.26-.8-.93-.83-3.45-2.46-3.5-2.27-.01.03-.1.69-.2 1.46s-.23 1.45-.29 1.51-.4-.43-.75-1.09c-.35-.66-.97-1.47-1.38-1.82-.72-.61-.74-.61-1.1-.03-.2.33-.75 1.02-1.22 1.53l-.85.93-.22-1.59c-.12-.88-.37-1.68-.54-1.78-.18-.1-.32 0-.32.22s-.35.95-.78 1.62l-.77 1.21-.71-1.99c-.39-1.09-.62-1.5-.51-.9.11.6.28 1.61.38 2.25.1.64.3 1.17.44 1.17.34 0 1.95-1.83 1.95-2.22 0-.17.16-.21.37-.09.22.13.3.7.2 1.42-.09.66-.07 1.2.05 1.2.52 0 1.68-1.01 2.35-2.03l.72-1.1.92 1.19c.51.65 1.02 1.57 1.15 2.03s.35.84.5.84c.27 0 .96-1.94.96-2.72 0-.51.18-.49 1.24.13 1.36.8 2.69 2.03 2.69 2.49 0 .67.56.46.78-.29.11-.38.2-1.38.2-2.21V83l1.17.84c.64.46 1.21.8 1.26.74.34-.4.8-2.26.62-2.53-.13-.16-.38.19-.58.81zm1.72-6.59c-.32-.77-.33-.77-1.03.52l-.71 1.3-1.03-.83c-.57-.46-1.2-1.11-1.41-1.46-.33-.54-.35-.49-.18.37.12.59.02 1.31-.24 1.79l-.44.8-1.08-1.09c-.6-.6-1.23-1.09-1.42-1.09s.09.38.6.85c.52.47 1.17 1.19 1.44 1.59l.5.73.65-1.28c.35-.7.73-1.28.83-1.28.1 0 .54.35.96.77.42.43.86.78.98.78.11 0 .39-.49.62-1.09l.42-1.09.81.92c.45.5 1.53 1.41 2.4 2.02 1.45 1.01 1.6 1.23 1.74 2.62.08.8.41 1.75.79 2.33v-1.88c-.04-.18-.07-.35-.09-.52-.02-.22-.05-.41-.07-.59.06.03.11.06.16.1v-.82c-2.39-1.5-4.82-3.57-5.2-4.47zm4.17 12.72l-.04 1.73c-.02.95-.12 1.8-.21 1.89-.25.24-3.49-.73-4.46-1.33-.69-.43-.85-.44-.98-.08-.08.24-.75.97-1.49 1.62-1.18 1.05-1.37 1.12-1.57.62-.13-.31-.68-1.66-1.23-3-.55-1.34-.93-2.56-.84-2.7.09-.14.02-.34-.15-.44-.47-.27-1.2 1-1.66 2.86-.22.9-.52 1.71-.68 1.79-.32.18-1.95-1.97-1.95-2.57 0-.83-.57-.34-.93.81-.21.66-.7 1.59-1.09 2.06l-.71.86-.45-1.36c-.25-.75-.49-1.53-.53-1.74-.16-.71-.54-.81-.54-.14 0 1.35-1.01 3.1-2.07 3.59l-1.04.48-.4-1.46c-.22-.8-.41-1.76-.41-2.12l-.01-.66-1.53.73c-.84.4-1.58.69-1.65.63-.06-.06.11-.51.38-1.01s.5-1.11.5-1.38c0-.26.25-.8.54-1.21.42-.56.44-.7.08-.59-.25.08-.72.9-1.03 1.83-.31.93-.87 1.92-1.24 2.21-1 .78-.35.89 1.6.27 1.2-.39 1.77-.45 1.85-.21.06.19.28.87.49 1.51.21.64.28 1.44.17 1.79-.25.73.23.83.82.16.22-.26.6-.47.83-.47.53 0 2.12-1.76 2.12-2.35 0-.24.15-.44.33-.44s.33.63.33 1.4.14 1.4.3 1.4c.45 0 2.31-2.23 2.53-3.03.1-.38.27-.7.36-.7.28 0 1.07 1.02 1.54 2l.44.92.69-1.07c.38-.59.78-1.56.9-2.16.11-.6.33-1.3.47-1.55.22-.39.3-.36.48.16.12.34.58 1.46 1.01 2.49.44 1.03.82 2.25.86 2.72s.12.85.18.85c.39 0 3.07-1.99 3.36-2.5.32-.57.42-.58 1.28-.15.52.25 1.59.6 2.39.77.8.17 1.73.41 2.06.53.49.18.56.11.37-.35-.13-.32-.14-1.18-.02-1.92l.21-1.34h.46v-.43c-.03 0-.07-.01-.09-.01l-.93-.21zM172 62.81v-1.49l-.63.68.63.81zm-9.06 7.34c0 .65-.16 1.46-.35 1.8-.32.57-.42.53-1.48-.67L159.98 70v.88c0 .49-.1 1.21-.21 1.6-.19.68-.23.69-.75.16-.3-.31-.8-.9-1.11-1.33-.62-.85-.7-.64-.29.77.15.51.19 1.25.08 1.64-.19.71-.21.7-1.46-.39-1.41-1.23-1.51-1.27-1.53-.71-.01.21-.34.77-.75 1.24l-.74.85-1.2-.94c-.7-.55-1.26-1.29-1.33-1.78l-.14-.85-.05.88c-.05.83.27 1.22 2.36 2.96.53.44.87.43.89-.04.01-.21.3-.72.66-1.12l.65-.74 1.44 1.12 1.44 1.12.24-1.47c.22-1.32.27-1.4.58-.77.47.97.78.88 1.27-.39.51-1.34.78-1.36 1.57-.12l.62.97.47-.89c.66-1.24.91-2.7.55-3.24-.2-.32-.29-.1-.3.74zm-1.1-8.08c.12.11.52.14.9.07s1.48-.22 2.44-.32c1.99-.21 4.06-.92 5.38-1.83 1.45-1 1.04-1.19-.49-.23-1.91 1.2-3.52 1.65-6.19 1.7-2.15.05-2.52.16-2.04.61z"/><path fill="#FFB700" d="M104.43 136.55l.49.12c0 .09-.07 2.31-.4 3.75-.15.65-.33 1.36-.53 2.1-.3 1.16-.62 2.36-.79 3.37-.03.38-.05.76-.08 1.15-.25 4.02-.53 8.59-5.94 8.94-.15.02-.3.02-.44.02-1.21 0-1.88-.34-2.47-.64-.36-.18-.68-.34-1.08-.41-.78-.12-2.67-.15-2.69-.15h-.28l.17-2.2c-.03-.07-.12-.22-.19-.36-.66-1.16-2.4-4.25.08-6.7 1.32-1.33 3.57-1.89 5.75-2.44 1.5-.38 3.05-.77 4.23-1.4.11-.07.26-.14.39-.23.12-.07.23-.15.34-.23 1.77-1.33 3.42-4.65 3.44-4.69zM104 49.47c-.3-1.16-.62-2.36-.79-3.37-.03-.38-.05-.76-.08-1.15-.25-4.02-.53-8.59-5.94-8.94-1.51-.1-2.26.29-2.92.63-.36.18-.68.34-1.08.41-.78.12-2.67.15-2.69.15h-.28l.17 2.2c-.03.07-.12.22-.19.36-.66 1.16-2.4 4.25.08 6.7 1.32 1.33 3.57 1.9 5.75 2.45 1.84.46 3.74.94 4.96 1.86 1.76 1.32 3.41 4.64 3.43 4.68l.49-.12c0-.09-.07-2.32-.4-3.75-.13-.65-.32-1.36-.51-2.11z"/><path d="M101 141.23c-.11.08-.22.16-.34.23-.13.09-.29.16-.39.23-1.18.63-2.73 1.02-4.23 1.4-2.18.55-4.43 1.12-5.75 2.44-2.48 2.45-.73 5.54-.08 6.7.08.14.17.29.19.36l-.17 2.2h.28c.02 0 1.91.02 2.69.15.4.06.71.22 1.08.41.59.3 1.26.64 2.47.64.14 0 .3 0 .46-.02 5.41-.35 5.69-4.91 5.94-8.94.02-.39.05-.77.08-1.15.17-1.01.49-2.21.79-3.37.2-.75.38-1.46.53-2.1.32-1.43.39-3.65.4-3.75l-.49-.12c-.05.05-1.7 3.37-3.46 4.69zm3.02-.92c-.14.64-.33 1.34-.52 2.09-.31 1.18-.62 2.39-.8 3.43v.02c-.03.38-.05.77-.08 1.17-.25 4-.5 8.13-5.45 8.45-.15.01-.29.01-.42.01-1.08 0-1.67-.3-2.23-.58-.39-.2-.75-.38-1.23-.46-.64-.1-1.92-.14-2.48-.15l.13-1.69c.01-.14-.06-.27-.26-.62-.66-1.17-2.2-3.9-.01-6.07 1.22-1.22 3.4-1.78 5.51-2.31 1.89-.48 3.84-.97 5.15-1.95 1.23-.93 2.38-2.7 3.02-3.83-.07.76-.17 1.75-.33 2.49zM104 49.47c-.3-1.16-.62-2.36-.79-3.37-.03-.38-.05-.76-.08-1.15-.25-4.02-.53-8.59-5.94-8.94-1.51-.1-2.26.29-2.92.63-.36.18-.68.34-1.08.41-.78.12-2.67.15-2.69.15h-.28l.17 2.2c-.03.07-.12.22-.19.36-.66 1.16-2.4 4.25.08 6.7 1.32 1.33 3.57 1.9 5.75 2.45 1.84.46 3.74.94 4.96 1.86 1.76 1.32 3.41 4.64 3.43 4.68l.49-.12c0-.09-.07-2.32-.4-3.75-.13-.65-.32-1.36-.51-2.11zm-2.69.88c-1.31-.98-3.26-1.48-5.15-1.95-2.11-.53-4.29-1.08-5.51-2.31-2.19-2.17-.65-4.91.01-6.07.2-.35.27-.48.26-.62l-.13-1.69c.57-.01 1.84-.05 2.48-.15.48-.08.85-.26 1.23-.46.63-.32 1.29-.66 2.65-.57 4.95.32 5.21 4.45 5.45 8.45.02.39.05.78.08 1.17v.02c.18 1.03.49 2.25.8 3.43.19.75.38 1.45.52 2.09.17.74.27 1.73.32 2.49-.63-1.13-1.77-2.9-3.01-3.83z"/><g><path fill="none" d="M172 160V32c0-6.6-5.4-12-12-12H32c-6.6 0-12 5.4-12 12v128c0 6.6 5.4 12 12 12h128c6.6 0 12-5.4 12-12z" opacity=".4"/><path fill="none" d="M0 0v192h192V0H0z"/><path fill="#DFDFDF" d="M160 20c6.6 0 12 5.4 12 12v128c0 6.6-5.4 12-12 12H32c-6.6 0-12-5.4-12-12V32c0-6.6 5.4-12 12-12h128m0-8H32c-11.03 0-20 8.97-20 20v128c0 11.03 8.97 20 20 20h128c11.03 0 20-8.97 20-20V32c0-11.03-8.97-20-20-20z"/><path fill="#FFF" fill-opacity=".2" d="M160 20H32c-6.6 0-12 5.4-12 12v1c0-6.6 5.4-12 12-12h128c6.6 0 12 5.4 12 12v-1c0-6.6-5.4-12-12-12z"/><path fill="#212121" fill-opacity=".1" d="M160 172H32c-6.6 0-12-5.4-12-12v-1c0 6.6 5.4 12 12 12h128c6.6 0 12-5.4 12-12v1c0 6.6-5.4 12-12 12z"/><radialGradient id="a" cx="23.768" cy="23.933" r="204.625" gradientUnits="userSpaceOnUse"><stop offset="0" stop-color="#fff" stop-opacity=".1"/><stop offset="1" stop-color="#fff" stop-opacity="0"/></radialGradient><path fill="url(#a)" d="M160 172H32c-6.6 0-12-5.4-12-12V32c0-6.6 5.4-12 12-12h128c6.6 0 12 5.4 12 12v128c0 6.6-5.4 12-12 12z"/></g></svg>